# xmcd
#
# Track frame offsets: 
#        150
#        14434
#        26037
#        39148
#        49789
#        65322
#        75681
#        87338
#        97954
#        107382
#        117489
#        131177
#        141051
#        150255
#        160111
#        171336
#        182772
#        192538
#        203568
#        212995
#        225781
#        237708
#        250249
#        262960
#        276789
#        290764
#
# Disc length: 4075 seconds
#
# Revision: 0
# Processed by: cddbd v1.5.2PL0 Copyright (c) Steve Scherf et al.
# Submitted via: ExactAudioCopy v1.0b3
#
DISCID=680fe91a
DTITLE=Various Artist - Country Party
DYEAR=1900
DGENRE=Country
TTITLE0=John Denver - Thank God I'm A Country Boy
TTITLE1=Billie Jo Spears - Silver Threads And Golden Needles
TTITLE2=Ray Stevens - Misty
TTITLE3=Lynn Anderson - Rocky Top
TTITLE4=Juice Newton - Queen Of Hearts
TTITLE5=Mel McDaniel - Louisiana Saturday Night
TTITLE6=Johnny Cash - Ring Of Fire
TTITLE7=Don Gibson - Oh Lonesome Me
TTITLE8=The Harden Trio - Tippy Toeing
TTITLE9=John Denver - Grandma's Feather Bed
TTITLE10=Willie Nelson and Leon Russell - Heartbreak Hotel
TTITLE11=Merle Haggard - Mama Tried (Live)
TTITLE12=Waylon Jennings - Brown Eyed Handsome Man
TTITLE13=George &Gene - I've Got Five Dollars And Its Saturday Night
TTITLE14=Johnny Horton - Cherokee Burger
TTITLE15=Dave Dudley - Six Days On The Road
TTITLE16=Glen Campbell - Gentle On My Mind (Live)
TTITLE17=Waylon Jennings - Sally Was A Good Old Girl
TTITLE18=Bob Luman - Let's Think About Living
TTITLE19=Lee Hazelwood - These Boots Are Made For Walking
TTITLE20=Don Williams - Tulsa Time (Live)
TTITLE21=Johnny Lee - Sounds Like Love
TTITLE22=The Gatlin Brothers - All The Gold In California
TTITLE23=Roy Clark - Honeymoon Feelin'
TTITLE24=John Denver - Take Me Home, Country Roads (Live)
TTITLE25=Johnny Lee - Country Party
EXTD=
EXTT0=
EXTT1=
EXTT2=
EXTT3=
EXTT4=
EXTT5=
EXTT6=
EXTT7=
EXTT8=
EXTT9=
EXTT10=
EXTT11=
EXTT12=
EXTT13=
EXTT14=
EXTT15=
EXTT16=
EXTT17=
EXTT18=
EXTT19=
EXTT20=
EXTT21=
EXTT22=
EXTT23=
EXTT24=
EXTT25=
PLAYORDER=
